# xmcd CD database file
#
# Track frame offsets:
#	150
#	25354
#	52942
#	68624
#	91486
#	105571
#	126419
#	144041
#
# Disc length: 2267 seconds
#
# Revision: 0
# Processed by: cddbd v1.5PL3 Copyright (c) Steve Scherf et al.
# Submitted via: CDex 1.51
#
DISCID=6308d908
DTITLE=Sojiro - Forest
DYEAR=1987
DGENRE=New Age
TTITLE0=Morning Glow (Asa-no Kagiyaki)
TTITLE1=Forest (Seirei-no Mori)
TTITLE2=Harmony
TTITLE3=TAO (Michi)
TTITLE4=Spring Breeze (Harukaze-no Sas
TTITLE5=The Natural World (Hakurei)
TTITLE6=Spiritual Scene (Kanashimi-no Hate)
TTITLE7=Moon Light
EXTD=YEAR: 1987
EXTT0=
EXTT1=
EXTT2=
EXTT3=
EXTT4=
EXTT5=
EXTT6=
EXTT7=
PLAYORDER=
